<svg xmlns="http://www.w3.org/2000/svg" width="8000" height="5200" viewBox="0 0 8000 5200" role="img" aria-label="SatelliteSimJulia scalable map with Xiaohei illustration thumbnails">
<defs><style>
:root{--ink:#1d1d1f;--orange:#eb7619;--blue:#2f6fd6;--red:#d94a3a;--muted:#666;}
text{font-family:"Hiragino Sans GB","PingFang SC","Noto Sans CJK SC",sans-serif;fill:var(--ink)}
.map-title{font-size:118px;font-weight:850}.map-sub{font-size:42px;fill:#555}.map-note{font-size:34px;fill:#666}
.boundary{stroke:#e0e0e0;stroke-width:3;stroke-dasharray:20 20;opacity:.58}.tile-label{font-size:28px;fill:#aaa}
.path-shadow{fill:none;stroke:#f7d7bd;stroke-width:52;stroke-linecap:round;stroke-linejoin:round;opacity:.65}.path-main{fill:none;stroke:var(--orange);stroke-width:24;stroke-linecap:round;stroke-linejoin:round}.anchor{fill:var(--red);stroke:#fff;stroke-width:6}
.backflow{fill:none;stroke:var(--blue);stroke-width:14;stroke-linecap:round;stroke-dasharray:32 20}.backflow-label{font-size:46px;font-weight:700;fill:var(--blue)}
.module-box{fill:rgba(255,255,255,.95);stroke:#202020;stroke-width:5}.module-group:nth-child(n+7) .module-box{stroke-dasharray:18 12}.layer-text{font-size:38px;font-weight:800;fill:#fff}.mod-title{font-size:78px;font-weight:850}.question{font-size:37px;fill:#555;font-weight:650}.detail{font-size:28px;fill:#333}.sep{stroke:#e6e6e6;stroke-width:3}.image-frame{fill:#fff;stroke:#d6d6d6;stroke-width:3}.legend{font-size:34px;fill:#333}.layer-num{font-size:42px;font-weight:900;fill:#fff}.layer-card-title{font-size:42px;font-weight:750}.layer-card-q{font-size:28px;fill:#555}.layer-card-desc{font-size:26px;fill:#666}.micro{font-size:30px;fill:#666}
</style><marker id="arrow-orange" viewBox="0 0 10 10" refX="8" refY="5" markerWidth="9" markerHeight="9" orient="auto-start-reverse"><path d="M0 0 L10 5 L0 10 z" fill="#eb7619"/></marker><filter id="softShadow"><feDropShadow dx="0" dy="8" stdDeviation="10" flood-color="#000" flood-opacity=".08"/></filter></defs>
<rect width="100%" height="100%" fill="white"/>
<g id="boundary-contract">
<path class="boundary" d="M2000 360 V4280"/><text class="tile-label" x="2018" y="410">tile seam: path + text + image layer continue</text>
<path class="boundary" d="M4000 360 V4280"/><text class="tile-label" x="4018" y="410">tile seam: path + text + image layer continue</text>
<path class="boundary" d="M6000 360 V4280"/><text class="tile-label" x="6018" y="410">tile seam: path + text + image layer continue</text>
<path class="boundary" d="M260 1600 H7740"/>
<path class="boundary" d="M260 3000 H7740"/>
<path class="boundary" d="M260 4300 H7740"/>
</g>
<g id="map-title"><text class="map-title" x="360" y="250">SatelliteSimJulia 可缩放正文地图 v3</text><text class="map-sub" x="365" y="325">结构和文字仍由 SVG 承担；模块内部已换成小黑风格插图缩略图，而不是文字占位框。</text><text class="map-note" x="365" y="385">主线：Foundation → Orbit → Link → Topology → Routing → Traffic → Analysis/Opt → Lab/Interaction；局部视觉来自既有 Ian 小黑配图素材。</text></g>
<g id="main-path"><path class="path-shadow" d="M 1620.0 1000.0 C 1692.0 976.0, 1708.0 864.0, 1780.0 840.0 C 2347.0 840.0, 2473.0 840.0, 3040.0 840.0 C 3112.0 864.0, 3128.0 976.0, 3200.0 1000.0 C 3794.0 1000.0, 3926.0 1000.0, 4520.0 1000.0 C 4583.0 985.0, 4597.0 915.0, 4660.0 900.0 C 5227.0 900.0, 5353.0 900.0, 5920.0 900.0 C 5983.0 954.0, 5997.0 1206.0, 6060.0 1260.0 C 6343.5 1317.0, 6406.5 1583.0, 6690.0 1640.0 C 6721.5 1730.0, 6728.5 2150.0, 6760.0 2240.0 C 6760.0 2360.0, 6760.0 2920.0, 6760.0 3040.0 C 6427.0 3140.5, 6353.0 3609.5, 6020.0 3710.0 C 5399.0 3710.0, 5261.0 3710.0, 4640.0 3710.0 C 4550.0 3746.0, 4530.0 3914.0, 4440.0 3950.0 C 3846.0 3950.0, 3714.0 3950.0, 3120.0 3950.0 C 3075.0 3929.0, 3065.0 3831.0, 3020.0 3810.0 C 2426.0 3810.0, 2294.0 3810.0, 1700.0 3810.0 C 1664.0 3738.0, 1656.0 3402.0, 1620.0 3330.0 C 1336.5 3268.5, 1273.5 2981.5, 990.0 2920.0 C 1053.0 2845.0, 1067.0 2495.0, 1130.0 2420.0 C 1130.0 2306.0, 1130.0 1774.0, 1130.0 1660.0 C 783.5 1561.0, 706.5 1099.0, 360.0 1000.0"/><path id="orange-orbit" class="path-main" d="M 1620.0 1000.0 C 1692.0 976.0, 1708.0 864.0, 1780.0 840.0 C 2347.0 840.0, 2473.0 840.0, 3040.0 840.0 C 3112.0 864.0, 3128.0 976.0, 3200.0 1000.0 C 3794.0 1000.0, 3926.0 1000.0, 4520.0 1000.0 C 4583.0 985.0, 4597.0 915.0, 4660.0 900.0 C 5227.0 900.0, 5353.0 900.0, 5920.0 900.0 C 5983.0 954.0, 5997.0 1206.0, 6060.0 1260.0 C 6343.5 1317.0, 6406.5 1583.0, 6690.0 1640.0 C 6721.5 1730.0, 6728.5 2150.0, 6760.0 2240.0 C 6760.0 2360.0, 6760.0 2920.0, 6760.0 3040.0 C 6427.0 3140.5, 6353.0 3609.5, 6020.0 3710.0 C 5399.0 3710.0, 5261.0 3710.0, 4640.0 3710.0 C 4550.0 3746.0, 4530.0 3914.0, 4440.0 3950.0 C 3846.0 3950.0, 3714.0 3950.0, 3120.0 3950.0 C 3075.0 3929.0, 3065.0 3831.0, 3020.0 3810.0 C 2426.0 3810.0, 2294.0 3810.0, 1700.0 3810.0 C 1664.0 3738.0, 1656.0 3402.0, 1620.0 3330.0 C 1336.5 3268.5, 1273.5 2981.5, 990.0 2920.0 C 1053.0 2845.0, 1067.0 2495.0, 1130.0 2420.0 C 1130.0 2306.0, 1130.0 1774.0, 1130.0 1660.0 C 783.5 1561.0, 706.5 1099.0, 360.0 1000.0" marker-end="url(#arrow-orange)"/></g>
<g id="modules"><g id="module-foundation" class="module-group" data-layer="Layer 0" filter="url(#softShadow)">
  <rect class="module-box" x="360" y="620" width="1260" height="760" rx="46"/>
  <rect class="layer-pill" x="416" y="668" width="230" height="70" rx="35" fill="#eb7619"/>
  <text class="layer-text" x="448" y="716">Layer 0</text>
  <text class="mod-title" x="416" y="805">基础层</text>
  <text class="question" x="416" y="858">坐标怎么算？</text>
  <text class="detail" x="416" y="920">职责：WGS84 常量、时间网格、坐标/参考系、基础</text>
<text class="detail" x="416" y="954">实体。</text>
<text class="detail" x="416" y="988">输入：实验 epoch、时间步长、地面站/终端参数。</text>
<text class="detail" x="416" y="1022">输出：SimulationTimeGrid、ECEF</text>
<text class="detail" x="416" y="1056">/ECI/LLA 变换、Satellite/Grou</text>
<text class="detail" x="416" y="1090">扩展：统一时间和坐标，所有上层只按时间片索引对齐。</text>
  <line x1="416" y1="1102" x2="1564" y2="1102" class="sep"/>
  <g class="visual-slot">
  <clipPath id="clip-foundation-0"><rect x="416.0" y="1130.0" width="555.0" height="190" rx="24"/></clipPath>
  <rect class="image-frame" x="416.0" y="1130.0" width="555.0" height="190" rx="24"/>
  <image href="assets/012-foundation-coordinate-doors.png" x="416.0" y="1130.0" width="555.0" height="190" preserveAspectRatio="xMidYMid meet" clip-path="url(#clip-foundation-0)"/>
</g><g class="visual-slot">
  <clipPath id="clip-foundation-1"><rect x="1009.0" y="1130.0" width="555.0" height="190" rx="24"/></clipPath>
  <rect class="image-frame" x="1009.0" y="1130.0" width="555.0" height="190" rx="24"/>
  <image href="assets/013-foundation-time-clothesline.png" x="1009.0" y="1130.0" width="555.0" height="190" preserveAspectRatio="xMidYMid meet" clip-path="url(#clip-foundation-1)"/>
</g>
</g>
<g id="module-orbit" class="module-group" data-layer="Layer 1" filter="url(#softShadow)">
  <rect class="module-box" x="1780" y="460" width="1260" height="760" rx="46"/>
  <rect class="layer-pill" x="1836" y="508" width="230" height="70" rx="35" fill="#2f6fd6"/>
  <text class="layer-text" x="1868" y="556">Layer 1</text>
  <text class="mod-title" x="1836" y="645">轨道层</text>
  <text class="question" x="1836" y="698">卫星在哪？</text>
  <text class="detail" x="1836" y="760">职责：Walker 星座生成、TwoBody/J2/</text>
<text class="detail" x="1836" y="794">J4/SGP4 传播、星历容器、TLE 数据源。</text>
<text class="detail" x="1836" y="828">输入：星座参数、传播器、时间网格、TLE。</text>
<text class="detail" x="1836" y="862">输出：裸 Array{Float64,3} 位置矩阵</text>
<text class="detail" x="1836" y="896"> N×T×3。</text>
<text class="detail" x="1836" y="930">扩展：新增传播器=新增类型+方法分派，不改主链路。</text>
  <line x1="1836" y1="942" x2="2984" y2="942" class="sep"/>
  <g class="visual-slot">
  <clipPath id="clip-orbit-0"><rect x="1836.0" y="970.0" width="555.0" height="190" rx="24"/></clipPath>
  <rect class="image-frame" x="1836.0" y="970.0" width="555.0" height="190" rx="24"/>
  <image href="assets/019-orbit-tle-ticket-gate.png" x="1836.0" y="970.0" width="555.0" height="190" preserveAspectRatio="xMidYMid meet" clip-path="url(#clip-orbit-0)"/>
</g><g class="visual-slot">
  <clipPath id="clip-orbit-1"><rect x="2429.0" y="970.0" width="555.0" height="190" rx="24"/></clipPath>
  <rect class="image-frame" x="2429.0" y="970.0" width="555.0" height="190" rx="24"/>
  <image href="assets/017-orbit-propagator-scale.png" x="2429.0" y="970.0" width="555.0" height="190" preserveAspectRatio="xMidYMid meet" clip-path="url(#clip-orbit-1)"/>
</g>
</g>
<g id="module-link" class="module-group" data-layer="Layer 2" filter="url(#softShadow)">
  <rect class="module-box" x="3200" y="620" width="1320" height="760" rx="46"/>
  <rect class="layer-pill" x="3256" y="668" width="230" height="70" rx="35" fill="#2f6fd6"/>
  <text class="layer-text" x="3288" y="716">Layer 2</text>
  <text class="mod-title" x="3256" y="805">链路层</text>
  <text class="question" x="3256" y="858">能不能连上？</text>
  <text class="detail" x="3256" y="920">职责：ISL/GSL 物理链路评估：距离、LOS、仰角/方</text>
<text class="detail" x="3256" y="954">位、时延、容量、约束。</text>
<text class="detail" x="3256" y="988">输入：卫星位置、地面站/终端、链路预算参数。</text>
<text class="detail" x="3256" y="1022">输出：可行性矩阵、距离/时延/容量样本。</text>
<text class="detail" x="3256" y="1056">扩展：官方库优先；几何和物理约束集中在 Link。</text>
  <line x1="3256" y1="1102" x2="4464" y2="1102" class="sep"/>
  <g class="visual-slot">
  <clipPath id="clip-link-0"><rect x="3256.0" y="1130.0" width="585.0" height="190" rx="24"/></clipPath>
  <rect class="image-frame" x="3256.0" y="1130.0" width="585.0" height="190" rx="24"/>
  <image href="assets/021-link-five-laser-gates.png" x="3256.0" y="1130.0" width="585.0" height="190" preserveAspectRatio="xMidYMid meet" clip-path="url(#clip-link-0)"/>
</g><g class="visual-slot">
  <clipPath id="clip-link-1"><rect x="3879.0" y="1130.0" width="585.0" height="190" rx="24"/></clipPath>
  <rect class="image-frame" x="3879.0" y="1130.0" width="585.0" height="190" rx="24"/>
  <image href="assets/022-link-glass-earth-ruler.png" x="3879.0" y="1130.0" width="585.0" height="190" preserveAspectRatio="xMidYMid meet" clip-path="url(#clip-link-1)"/>
</g>
</g>
<g id="module-topology" class="module-group" data-layer="Layer 3" filter="url(#softShadow)">
  <rect class="module-box" x="4660" y="520" width="1260" height="760" rx="46"/>
  <rect class="layer-pill" x="4716" y="568" width="230" height="70" rx="35" fill="#2f6fd6"/>
  <text class="layer-text" x="4748" y="616">Layer 3</text>
  <text class="mod-title" x="4716" y="705">拓扑层</text>
  <text class="question" x="4716" y="758">谁和谁连接？</text>
  <text class="detail" x="4716" y="820">职责：Grid+/T/Ring/Honeycomb/</text>
<text class="detail" x="4716" y="854">MOST/DPSO 等拓扑策略。</text>
<text class="detail" x="4716" y="888">输入：链路可行性、星间距离、策略参数。</text>
<text class="detail" x="4716" y="922">输出：邻接矩阵、ISL 图、候选边集。</text>
<text class="detail" x="4716" y="956">扩展：TopologyStrategy 多实现，可替</text>
<text class="detail" x="4716" y="990">换不泄漏到用户层。</text>
  <line x1="4716" y1="1002" x2="5864" y2="1002" class="sep"/>
  <g class="visual-slot">
  <clipPath id="clip-topology-0"><rect x="4716.0" y="1030.0" width="555.0" height="190" rx="24"/></clipPath>
  <rect class="image-frame" x="4716.0" y="1030.0" width="555.0" height="190" rx="24"/>
  <image href="assets/031-topology-edge-punch.png" x="4716.0" y="1030.0" width="555.0" height="190" preserveAspectRatio="xMidYMid meet" clip-path="url(#clip-topology-0)"/>
</g><g class="visual-slot">
  <clipPath id="clip-topology-1"><rect x="5309.0" y="1030.0" width="555.0" height="190" rx="24"/></clipPath>
  <rect class="image-frame" x="5309.0" y="1030.0" width="555.0" height="190" rx="24"/>
  <image href="assets/032-topology-shoelace-cards.png" x="5309.0" y="1030.0" width="555.0" height="190" preserveAspectRatio="xMidYMid meet" clip-path="url(#clip-topology-1)"/>
</g>
</g>
<g id="module-routing" class="module-group" data-layer="Layer 4" filter="url(#softShadow)">
  <rect class="module-box" x="6060" y="880" width="1260" height="760" rx="46"/>
  <rect class="layer-pill" x="6116" y="928" width="230" height="70" rx="35" fill="#2f6fd6"/>
  <text class="layer-text" x="6148" y="976">Layer 4</text>
  <text class="mod-title" x="6116" y="1065">路由层</text>
  <text class="question" x="6116" y="1118">数据走哪条路？</text>
  <text class="detail" x="6116" y="1180">职责：Dijkstra/ECMP/MinLoad，G</text>
<text class="detail" x="6116" y="1214">SL→ISL→GSL 端到端路径。</text>
<text class="detail" x="6116" y="1248">输入：拓扑图、链路权重、源宿节点、路由意图。</text>
<text class="detail" x="6116" y="1282">输出：RoutePath、最短时延、下一跳、路径集合</text>
<text class="detail" x="6116" y="1316">。</text>
<text class="detail" x="6116" y="1350">扩展：用户只碰 RoutingIntent，防腐层翻</text>
<text class="detail" x="6116" y="1384">译成具体算法。</text>
  <line x1="6116" y1="1362" x2="7264" y2="1362" class="sep"/>
  <g class="visual-slot">
  <clipPath id="clip-routing-0"><rect x="6116.0" y="1390.0" width="555.0" height="190" rx="24"/></clipPath>
  <rect class="image-frame" x="6116.0" y="1390.0" width="555.0" height="190" rx="24"/>
  <image href="assets/035-routing-three-door-envelope.png" x="6116.0" y="1390.0" width="555.0" height="190" preserveAspectRatio="xMidYMid meet" clip-path="url(#clip-routing-0)"/>
</g><g class="visual-slot">
  <clipPath id="clip-routing-1"><rect x="6709.0" y="1390.0" width="555.0" height="190" rx="24"/></clipPath>
  <rect class="image-frame" x="6709.0" y="1390.0" width="555.0" height="190" rx="24"/>
  <image href="assets/037-routing-ecmp-bridge.png" x="6709.0" y="1390.0" width="555.0" height="190" preserveAspectRatio="xMidYMid meet" clip-path="url(#clip-routing-1)"/>
</g>
</g>
<g id="module-traffic" class="module-group" data-layer="Layer 5" filter="url(#softShadow)">
  <rect class="module-box" x="6100" y="2240" width="1320" height="800" rx="46"/>
  <rect class="layer-pill" x="6156" y="2288" width="230" height="70" rx="35" fill="#2f6fd6"/>
  <text class="layer-text" x="6188" y="2336">Layer 5</text>
  <text class="mod-title" x="6156" y="2425">流量层</text>
  <text class="question" x="6156" y="2478">网络负载多重？</text>
  <text class="detail" x="6156" y="2540">职责：AoN 流量分配，demand→RoutePath→</text>
<text class="detail" x="6156" y="2574">ISL/GSL 链路负载。</text>
<text class="detail" x="6156" y="2608">输入：业务需求、路由结果、容量/负载样本。</text>
<text class="detail" x="6156" y="2642">输出：offered/carried/dropped、链路</text>
<text class="detail" x="6156" y="2676">利用率、拥塞状态、电池 SOC 入口。</text>
<text class="detail" x="6156" y="2710">扩展：流量是路由和优化之间的压力计。</text>
  <line x1="6156" y1="2762" x2="7364" y2="2762" class="sep"/>
  <g class="visual-slot">
  <clipPath id="clip-traffic-0"><rect x="6156.0" y="2790.0" width="585.0" height="190" rx="24"/></clipPath>
  <rect class="image-frame" x="6156.0" y="2790.0" width="585.0" height="190" rx="24"/>
  <image href="assets/042-traffic-offered-carried-dropped.png" x="6156.0" y="2790.0" width="585.0" height="190" preserveAspectRatio="xMidYMid meet" clip-path="url(#clip-traffic-0)"/>
</g><g class="visual-slot">
  <clipPath id="clip-traffic-1"><rect x="6779.0" y="2790.0" width="585.0" height="190" rx="24"/></clipPath>
  <rect class="image-frame" x="6779.0" y="2790.0" width="585.0" height="190" rx="24"/>
  <image href="assets/043-traffic-link-load-drawer.png" x="6779.0" y="2790.0" width="585.0" height="190" preserveAspectRatio="xMidYMid meet" clip-path="url(#clip-traffic-1)"/>
</g>
</g>
<g id="module-analysis" class="module-group" data-layer="Layer 6" filter="url(#softShadow)">
  <rect class="module-box" x="4640" y="3300" width="1380" height="820" rx="46"/>
  <rect class="layer-pill" x="4696" y="3348" width="230" height="70" rx="35" fill="#2f6fd6"/>
  <text class="layer-text" x="4728" y="3396">Layer 6</text>
  <text class="mod-title" x="4696" y="3485">分析/优化层</text>
  <text class="question" x="4696" y="3538">怎么改进？</text>
  <text class="detail" x="4696" y="3600">职责：指标、瓶颈检测、可微 J2 传播、软覆盖 loss、</text>
<text class="detail" x="4696" y="3634">Adam 优化。</text>
<text class="detail" x="4696" y="3668">输入：覆盖/时延/容量/负载/损失函数。</text>
<text class="detail" x="4696" y="3702">输出：梯度方向、瓶颈快照、优化后的星座参数。</text>
<text class="detail" x="4696" y="3736">扩展：优化回流到轨道/拓扑/路由，不新建另一条物理链。</text>
  <line x1="4696" y1="3842" x2="5964" y2="3842" class="sep"/>
  <g class="visual-slot">
  <clipPath id="clip-analysis-0"><rect x="4696.0" y="3870.0" width="615.0" height="190" rx="24"/></clipPath>
  <rect class="image-frame" x="4696.0" y="3870.0" width="615.0" height="190" rx="24"/>
  <image href="assets/052-opt-gradient-backflow.png" x="4696.0" y="3870.0" width="615.0" height="190" preserveAspectRatio="xMidYMid meet" clip-path="url(#clip-analysis-0)"/>
</g><g class="visual-slot">
  <clipPath id="clip-analysis-1"><rect x="5349.0" y="3870.0" width="615.0" height="190" rx="24"/></clipPath>
  <rect class="image-frame" x="5349.0" y="3870.0" width="615.0" height="190" rx="24"/>
  <image href="assets/055-opt-dual-number-shadow.png" x="5349.0" y="3870.0" width="615.0" height="190" preserveAspectRatio="xMidYMid meet" clip-path="url(#clip-analysis-1)"/>
</g>
</g>
<g id="module-resource_security" class="module-group" data-layer="Layer 7-8" filter="url(#softShadow)">
  <rect class="module-box" x="3120" y="3540" width="1320" height="820" rx="46"/>
  <rect class="layer-pill" x="3176" y="3588" width="230" height="70" rx="35" fill="#2f6fd6"/>
  <text class="layer-text" x="3208" y="3636">Layer 7-8</text>
  <text class="mod-title" x="3176" y="3725">资源/安全层</text>
  <text class="question" x="3176" y="3778">卫星有什么？攻击者怎么做？</text>
  <text class="detail" x="3176" y="3840">职责：资源层描述缓存/CDN/计算/传感器；安全层注入恶意</text>
<text class="detail" x="3176" y="3874">流量、故障、能量消耗。</text>
<text class="detail" x="3176" y="3908">输入：基础链路与流量状态、攻击/资源模型。</text>
<text class="detail" x="3176" y="3942">输出：资源状态、故障注入结果、攻击影响指标。</text>
<text class="detail" x="3176" y="3976">扩展：并行消费 Layer 0-5，不互相依赖。</text>
  <line x1="3176" y1="4082" x2="4384" y2="4082" class="sep"/>
  <g class="visual-slot">
  <clipPath id="clip-resource_security-0"><rect x="3176.0" y="4110.0" width="585.0" height="190" rx="24"/></clipPath>
  <rect class="image-frame" x="3176.0" y="4110.0" width="585.0" height="190" rx="24"/>
  <image href="assets/094-mcp-sandbox-fence.png" x="3176.0" y="4110.0" width="585.0" height="190" preserveAspectRatio="xMidYMid meet" clip-path="url(#clip-resource_security-0)"/>
</g><g class="visual-slot">
  <clipPath id="clip-resource_security-1"><rect x="3799.0" y="4110.0" width="585.0" height="190" rx="24"/></clipPath>
  <rect class="image-frame" x="3799.0" y="4110.0" width="585.0" height="190" rx="24"/>
  <image href="assets/097-ai-missing-fields-drawers.png" x="3799.0" y="4110.0" width="585.0" height="190" preserveAspectRatio="xMidYMid meet" clip-path="url(#clip-resource_security-1)"/>
</g>
</g>
<g id="module-protocol_deploy" class="module-group" data-layer="Layer 9-10" filter="url(#softShadow)">
  <rect class="module-box" x="1700" y="3400" width="1320" height="820" rx="46"/>
  <rect class="layer-pill" x="1756" y="3448" width="230" height="70" rx="35" fill="#eb7619"/>
  <text class="layer-text" x="1788" y="3496">Layer 9-10</text>
  <text class="mod-title" x="1756" y="3585">协议/部署层</text>
  <text class="question" x="1756" y="3638">包级行为？怎么变成真网络？</text>
  <text class="detail" x="1756" y="3700">职责：协议栈层做 NetSim 包级延迟/丢包；部署层连接</text>
<text class="detail" x="1756" y="3734"> Lima VM/OEF 通道。</text>
<text class="detail" x="1756" y="3768">输入：Layer 0-4 产物、实验配置、网络接口。</text>
<text class="detail" x="1756" y="3802">输出：包级延迟、拥塞窗口、VM 配置、部署命令。</text>
<text class="detail" x="1756" y="3836">扩展：横向层，按需加载，不污染核心流水线。</text>
  <line x1="1756" y1="3942" x2="2964" y2="3942" class="sep"/>
  <g class="visual-slot">
  <clipPath id="clip-protocol_deploy-0"><rect x="1756.0" y="3970.0" width="585.0" height="190" rx="24"/></clipPath>
  <rect class="image-frame" x="1756.0" y="3970.0" width="585.0" height="190" rx="24"/>
  <image href="assets/086-server-physical-projector.png" x="1756.0" y="3970.0" width="585.0" height="190" preserveAspectRatio="xMidYMid meet" clip-path="url(#clip-protocol_deploy-0)"/>
</g><g class="visual-slot">
  <clipPath id="clip-protocol_deploy-1"><rect x="2379.0" y="3970.0" width="585.0" height="190" rx="24"/></clipPath>
  <rect class="image-frame" x="2379.0" y="3970.0" width="585.0" height="190" rx="24"/>
  <image href="assets/088-server-menu-handwritten-order.png" x="2379.0" y="3970.0" width="585.0" height="190" preserveAspectRatio="xMidYMid meet" clip-path="url(#clip-protocol_deploy-1)"/>
</g>
</g>
<g id="module-lab" class="module-group" data-layer="Layer 11" filter="url(#softShadow)">
  <rect class="module-box" x="360" y="2920" width="1260" height="820" rx="46"/>
  <rect class="layer-pill" x="416" y="2968" width="230" height="70" rx="35" fill="#eb7619"/>
  <text class="layer-text" x="448" y="3016">Layer 11</text>
  <text class="mod-title" x="416" y="3105">实验层</text>
  <text class="question" x="416" y="3158">实验怎么做？</text>
  <text class="detail" x="416" y="3220">职责：ExperimentConfig/run_ex</text>
<text class="detail" x="416" y="3254">periment/sweep/Study/Goal，</text>
<text class="detail" x="416" y="3288">输入：ConstellationIntent、Top</text>
<text class="detail" x="416" y="3322">ologyIntent、RoutingIntent、</text>
<text class="detail" x="416" y="3356">输出：ExperimentResult、Markdo</text>
<text class="detail" x="416" y="3390">wn/PNG/SVG/CZML artifact、批</text>
<text class="detail" x="416" y="3424">扩展：只编排下层公开 API，不引入新的物理实现。</text>
  <line x1="416" y1="3462" x2="1564" y2="3462" class="sep"/>
  <g class="visual-slot">
  <clipPath id="clip-lab-0"><rect x="416.0" y="3490.0" width="555.0" height="190" rx="24"/></clipPath>
  <rect class="image-frame" x="416.0" y="3490.0" width="555.0" height="190" rx="24"/>
  <image href="assets/068-lab-three-layer-airlock.png" x="416.0" y="3490.0" width="555.0" height="190" preserveAspectRatio="xMidYMid meet" clip-path="url(#clip-lab-0)"/>
</g><g class="visual-slot">
  <clipPath id="clip-lab-1"><rect x="1009.0" y="3490.0" width="555.0" height="190" rx="24"/></clipPath>
  <rect class="image-frame" x="1009.0" y="3490.0" width="555.0" height="190" rx="24"/>
  <image href="assets/074-lab-experiment-cartridge.png" x="1009.0" y="3490.0" width="555.0" height="190" preserveAspectRatio="xMidYMid meet" clip-path="url(#clip-lab-1)"/>
</g>
</g>
<g id="module-interaction" class="module-group" data-layer="Layer 12" filter="url(#softShadow)">
  <rect class="module-box" x="500" y="1660" width="1260" height="760" rx="46"/>
  <rect class="layer-pill" x="556" y="1708" width="230" height="70" rx="35" fill="#eb7619"/>
  <text class="layer-text" x="588" y="1756">Layer 12</text>
  <text class="mod-title" x="556" y="1845">交互层</text>
  <text class="question" x="556" y="1898">用户怎么用？</text>
  <text class="detail" x="556" y="1960">职责：CLI / Agent / DSL，把自然语言</text>
<text class="detail" x="556" y="1994">或命令翻译成实验意图和工具调用。</text>
<text class="detail" x="556" y="2028">输入：用户目标、CLI 参数、agent 对话、DS</text>
<text class="detail" x="556" y="2062">L study。</text>
<text class="detail" x="556" y="2096">输出：可执行实验、结果解读、下一步建议。</text>
<text class="detail" x="556" y="2130">扩展：AI 适配层只做意图翻译和解释，不泄漏实现名词</text>
<text class="detail" x="556" y="2164">。</text>
  <line x1="556" y1="2142" x2="1704" y2="2142" class="sep"/>
  <g class="visual-slot">
  <clipPath id="clip-interaction-0"><rect x="556.0" y="2170.0" width="555.0" height="190" rx="24"/></clipPath>
  <rect class="image-frame" x="556.0" y="2170.0" width="555.0" height="190" rx="24"/>
  <image href="assets/096-ai-study-origami.png" x="556.0" y="2170.0" width="555.0" height="190" preserveAspectRatio="xMidYMid meet" clip-path="url(#clip-interaction-0)"/>
</g><g class="visual-slot">
  <clipPath id="clip-interaction-1"><rect x="1149.0" y="2170.0" width="555.0" height="190" rx="24"/></clipPath>
  <rect class="image-frame" x="1149.0" y="2170.0" width="555.0" height="190" rx="24"/>
  <image href="assets/099-ai-teamgraph-spiral-stair.png" x="1149.0" y="2170.0" width="555.0" height="190" preserveAspectRatio="xMidYMid meet" clip-path="url(#clip-interaction-1)"/>
</g>
</g></g>
<g id="path-anchors">
<circle class="anchor" cx="1620.0" cy="1000.0" r="18"><title>boundary/path anchor 1</title></circle>
<circle class="anchor" cx="1780.0" cy="840.0" r="18"><title>boundary/path anchor 2</title></circle>
<circle class="anchor" cx="3040.0" cy="840.0" r="18"><title>boundary/path anchor 3</title></circle>
<circle class="anchor" cx="3200.0" cy="1000.0" r="18"><title>boundary/path anchor 4</title></circle>
<circle class="anchor" cx="4520.0" cy="1000.0" r="18"><title>boundary/path anchor 5</title></circle>
<circle class="anchor" cx="4660.0" cy="900.0" r="18"><title>boundary/path anchor 6</title></circle>
<circle class="anchor" cx="5920.0" cy="900.0" r="18"><title>boundary/path anchor 7</title></circle>
<circle class="anchor" cx="6060.0" cy="1260.0" r="18"><title>boundary/path anchor 8</title></circle>
<circle class="anchor" cx="6690.0" cy="1640.0" r="18"><title>boundary/path anchor 9</title></circle>
<circle class="anchor" cx="6760.0" cy="2240.0" r="18"><title>boundary/path anchor 10</title></circle>
<circle class="anchor" cx="6760.0" cy="3040.0" r="18"><title>boundary/path anchor 11</title></circle>
<circle class="anchor" cx="6020.0" cy="3710.0" r="18"><title>boundary/path anchor 12</title></circle>
<circle class="anchor" cx="4640.0" cy="3710.0" r="18"><title>boundary/path anchor 13</title></circle>
<circle class="anchor" cx="4440.0" cy="3950.0" r="18"><title>boundary/path anchor 14</title></circle>
<circle class="anchor" cx="3120.0" cy="3950.0" r="18"><title>boundary/path anchor 15</title></circle>
<circle class="anchor" cx="3020.0" cy="3810.0" r="18"><title>boundary/path anchor 16</title></circle>
<circle class="anchor" cx="1700.0" cy="3810.0" r="18"><title>boundary/path anchor 17</title></circle>
<circle class="anchor" cx="1620.0" cy="3330.0" r="18"><title>boundary/path anchor 18</title></circle>
<circle class="anchor" cx="990.0" cy="2920.0" r="18"><title>boundary/path anchor 19</title></circle>
<circle class="anchor" cx="1130.0" cy="2420.0" r="18"><title>boundary/path anchor 20</title></circle>
<circle class="anchor" cx="1130.0" cy="1660.0" r="18"><title>boundary/path anchor 21</title></circle>
</g>
<g id="feedback-lines">
<path class="backflow" d="M5330.0 3300 C3900 2500, 2200 2020, 2410.0 1220"/>
<path class="backflow" d="M6100 2640.0 C5300 2500, 5000 2500, 6690.0 880"/>
<text class="backflow-label" x="3030" y="2830">反馈线：优化、流量、验证会回到前面的设计选择</text></g>
<g id="xiaohei-operator"><ellipse cx="3820" cy="2170" rx="128" ry="185" fill="#050505"/><circle cx="3778" cy="2125" r="14" fill="white"/><circle cx="3868" cy="2125" r="14" fill="white"/><path d="M3730 2330 l-65 145 M3905 2330 l75 145" stroke="#1d1d1f" stroke-width="14" stroke-linecap="round"/><path d="M3930 2180 C4088 2140, 4195 2125, 4310 2110" stroke="#1d1d1f" stroke-width="16" fill="none" stroke-linecap="round"/><circle cx="4335" cy="2106" r="46" fill="#eb7619" stroke="#1d1d1f" stroke-width="10"/><text class="micro" x="3500" y="2500">小黑推动同一个仿真数据点，不是切换多张图</text></g>
<g id="layer-index"><text class="map-sub" x="360" y="4325">0-12 层正文索引</text><g class="layer-card"><rect x="360" y="4400" width="960" height="205" rx="28" fill="#fff" stroke="#ddd" stroke-width="4"/><circle cx="430" cy="4472" r="38" fill="#eb7619"/><text class="layer-num" x="408" y="4486">0</text><text class="layer-card-title" x="490" y="4462">基础层</text><text class="layer-card-q" x="490" y="4508">坐标怎么算？</text><text class="layer-card-desc" x="490" y="4555">WGS84、时间网格、坐标变换</text></g>
<g class="layer-card"><rect x="1410" y="4400" width="960" height="205" rx="28" fill="#fff" stroke="#ddd" stroke-width="4"/><circle cx="1480" cy="4472" r="38" fill="#1d1d1f"/><text class="layer-num" x="1458" y="4486">1</text><text class="layer-card-title" x="1540" y="4462">轨道层</text><text class="layer-card-q" x="1540" y="4508">卫星在哪？</text><text class="layer-card-desc" x="1540" y="4555">传播器、星座、TLE、位置矩阵</text></g>
<g class="layer-card"><rect x="2460" y="4400" width="960" height="205" rx="28" fill="#fff" stroke="#ddd" stroke-width="4"/><circle cx="2530" cy="4472" r="38" fill="#1d1d1f"/><text class="layer-num" x="2508" y="4486">2</text><text class="layer-card-title" x="2590" y="4462">链路层</text><text class="layer-card-q" x="2590" y="4508">能不能连上？</text><text class="layer-card-desc" x="2590" y="4555">ISL/GSL、距离、仰角、容量</text></g>
<g class="layer-card"><rect x="3510" y="4400" width="960" height="205" rx="28" fill="#fff" stroke="#ddd" stroke-width="4"/><circle cx="3580" cy="4472" r="38" fill="#1d1d1f"/><text class="layer-num" x="3558" y="4486">3</text><text class="layer-card-title" x="3640" y="4462">拓扑层</text><text class="layer-card-q" x="3640" y="4508">谁和谁连接？</text><text class="layer-card-desc" x="3640" y="4555">Grid+/MOST/DPSO、邻接图</text></g>
<g class="layer-card"><rect x="4560" y="4400" width="960" height="205" rx="28" fill="#fff" stroke="#ddd" stroke-width="4"/><circle cx="4630" cy="4472" r="38" fill="#1d1d1f"/><text class="layer-num" x="4608" y="4486">4</text><text class="layer-card-title" x="4690" y="4462">路由层</text><text class="layer-card-q" x="4690" y="4508">数据走哪条路？</text><text class="layer-card-desc" x="4690" y="4555">Dijkstra/ECMP/MinLoad、路径</text></g>
<g class="layer-card"><rect x="5610" y="4400" width="960" height="205" rx="28" fill="#fff" stroke="#ddd" stroke-width="4"/><circle cx="5680" cy="4472" r="38" fill="#1d1d1f"/><text class="layer-num" x="5658" y="4486">5</text><text class="layer-card-title" x="5740" y="4462">流量层</text><text class="layer-card-q" x="5740" y="4508">网络负载多重？</text><text class="layer-card-desc" x="5740" y="4555">AoN、链路利用率、拥塞</text></g>
<g class="layer-card"><rect x="6660" y="4400" width="960" height="205" rx="28" fill="#fff" stroke="#ddd" stroke-width="4"/><circle cx="6730" cy="4472" r="38" fill="#2f6fd6"/><text class="layer-num" x="6708" y="4486">6</text><text class="layer-card-title" x="6790" y="4462">优化层</text><text class="layer-card-q" x="6790" y="4508">怎么改进？</text><text class="layer-card-desc" x="6790" y="4555">梯度、loss、瓶颈检测</text></g>
<g class="layer-card"><rect x="360" y="4660" width="960" height="205" rx="28" fill="#fff" stroke="#ddd" stroke-width="4"/><circle cx="430" cy="4732" r="38" fill="#2f6fd6"/><text class="layer-num" x="408" y="4746">7</text><text class="layer-card-title" x="490" y="4722">资源层</text><text class="layer-card-q" x="490" y="4768">卫星有什么？</text><text class="layer-card-desc" x="490" y="4815">缓存/CDN/计算/传感器</text></g>
<g class="layer-card"><rect x="1410" y="4660" width="960" height="205" rx="28" fill="#fff" stroke="#ddd" stroke-width="4"/><circle cx="1480" cy="4732" r="38" fill="#2f6fd6"/><text class="layer-num" x="1458" y="4746">8</text><text class="layer-card-title" x="1540" y="4722">安全层</text><text class="layer-card-q" x="1540" y="4768">攻击者怎么做？</text><text class="layer-card-desc" x="1540" y="4815">恶意流量、故障、能量攻击</text></g>
<g class="layer-card"><rect x="2460" y="4660" width="960" height="205" rx="28" fill="#fff" stroke="#ddd" stroke-width="4"/><circle cx="2530" cy="4732" r="38" fill="#2f6fd6"/><text class="layer-num" x="2508" y="4746">9</text><text class="layer-card-title" x="2590" y="4722">协议栈层</text><text class="layer-card-q" x="2590" y="4768">TCP/BP 行为？</text><text class="layer-card-desc" x="2590" y="4815">包级延迟、丢包、拥塞窗口</text></g>
<g class="layer-card"><rect x="3510" y="4660" width="960" height="205" rx="28" fill="#fff" stroke="#ddd" stroke-width="4"/><circle cx="3580" cy="4732" r="38" fill="#2f6fd6"/><text class="layer-num" x="3558" y="4746">10</text><text class="layer-card-title" x="3640" y="4722">部署层</text><text class="layer-card-q" x="3640" y="4768">怎么变成真网络？</text><text class="layer-card-desc" x="3640" y="4815">Lima VM、OEF 通道</text></g>
<g class="layer-card"><rect x="4560" y="4660" width="960" height="205" rx="28" fill="#fff" stroke="#ddd" stroke-width="4"/><circle cx="4630" cy="4732" r="38" fill="#eb7619"/><text class="layer-num" x="4608" y="4746">11</text><text class="layer-card-title" x="4690" y="4722">实验层</text><text class="layer-card-q" x="4690" y="4768">实验怎么做？</text><text class="layer-card-desc" x="4690" y="4815">配置、执行、保存、导出</text></g>
<g class="layer-card"><rect x="5610" y="4660" width="960" height="205" rx="28" fill="#fff" stroke="#ddd" stroke-width="4"/><circle cx="5680" cy="4732" r="38" fill="#eb7619"/><text class="layer-num" x="5658" y="4746">12</text><text class="layer-card-title" x="5740" y="4722">交互层</text><text class="layer-card-q" x="5740" y="4768">用户怎么用？</text><text class="layer-card-desc" x="5740" y="4815">CLI、Agent、DSL</text></g></g>
<g id="legend" transform="translate(5480 4140)"><rect x="0" y="0" width="2050" height="245" rx="36" fill="#fff" stroke="#ddd" stroke-width="4"/><circle cx="80" cy="70" r="22" fill="#eb7619"/><text class="legend" x="130" y="84">橙色主路径：端到端仿真流水线</text><circle cx="80" cy="145" r="20" fill="#d94a3a"/><text class="legend" x="130" y="158">红点：边界锚点，分区扩展必须对齐</text><path d="M58 205 H108" stroke="#2f6fd6" stroke-width="12" stroke-dasharray="18 12"/><text class="legend" x="130" y="218">蓝线：反馈/优化/返工路径</text></g>
</svg>